C:/Users/Mishalia/Desktop/ffmpeg.exe -hide_banner -y -y -r 12 -i C:/Users/Mishalia/Documents/GitHub/6-10-16-20M/6-10Keyframes/frame%04d.png -crf 23 -preset medium -profile:v baseline -pix_fmt yuv420p C:/Users/Mishalia/Documents/GitHub/6-10-16-20M/6-10Keyframes/5 seconds.mp4
=====================================================
Input #0, image2, from 'C:/Users/Mishalia/Documents/GitHub/6-10-16-20M/6-10Keyframes/frame%04d.png':
  Duration: 00:00:04.84, start: 0.000000, bitrate: N/A
  Stream #0:0: Video: png, rgba(pc), 1920x1080 [SAR 9448:9448 DAR 16:9], 25 fps, 25 tbr, 25 tbn
Stream mapping:
  Stream #0:0 -> #0:0 (png (native) -> h264 (libx264))
Press [q] to stop, [?] for help
[libx264 @ 000001ad1de58200] using SAR=1/1
[libx264 @ 000001ad1de58200] using cpu capabilities: MMX2 SSE2Fast SSSE3 SSE4.2 AVX FMA3 BMI2 AVX2 AVX512
[libx264 @ 000001ad1de58200] profile Constrained Baseline, level 4.0, 4:2:0, 8-bit
[libx264 @ 000001ad1de58200] 264 - core 164 r3099 e067ab0 - H.264/MPEG-4 AVC codec - Copyleft 2003-2022 - http://www.videolan.org/x264.html - options: cabac=0 ref=3 deblock=1:0:0 analyse=0x1:0x111 me=hex subme=7 psy=1 psy_rd=1.00:0.00 mixed_ref=1 me_range=16 chroma_me=1 trellis=1 8x8dct=0 cqm=0 deadzone=21,11 fast_pskip=1 chroma_qp_offset=-2 threads=24 lookahead_threads=4 sliced_threads=0 nr=0 decimate=1 interlaced=0 bluray_compat=0 constrained_intra=0 bframes=0 weightp=0 keyint=250 keyint_min=12 scenecut=40 intra_refresh=0 rc_lookahead=40 rc=crf mbtree=1 crf=23.0 qcomp=0.60 qpmin=0 qpmax=69 qpstep=4 ip_ratio=1.40 aq=1:1.00
Output #0, mp4, to 'C:/Users/Mishalia/Documents/GitHub/6-10-16-20M/6-10Keyframes/5 seconds.mp4':
  Metadata:
    encoder         : Lavf59.27.100
  Stream #0:0: Video: h264 (avc1 / 0x31637661), yuv420p(tv, progressive), 1920x1080 [SAR 1:1 DAR 16:9], q=2-31, 12 fps, 12288 tbn
    Metadata:
      encoder         : Lavc59.37.100 libx264
    Side data:
      cpb: bitrate max/min/avg: 0/0/0 buffer size: 0 vbv_delay: N/A
frame=    1 fps=0.0 q=0.0 size=       0kB time=00:00:00.00 bitrate=N/A speed=   0x    frame=   84 fps=0.0 q=26.0 size=       0kB time=00:00:01.50 bitrate=   0.3kbits/s speed=2.84x    frame=  121 fps=0.0 q=-1.0 Lsize=     410kB time=00:00:10.00 bitrate= 335.5kbits/s speed=11.5x    
video:408kB audio:0kB subtitle:0kB other streams:0kB global headers:0kB muxing overhead: 0.321503%
[libx264 @ 000001ad1de58200] frame I:3     Avg QP:10.75  size: 37799
[libx264 @ 000001ad1de58200] frame P:118   Avg QP:16.09  size:  2576
[libx264 @ 000001ad1de58200] mb I  I16..4: 85.4%  0.0% 14.6%
[libx264 @ 000001ad1de58200] mb P  I16..4:  1.7%  0.0%  0.6%  P16..4:  0.8%  0.2%  0.1%  0.0%  0.0%    skip:96.6%
[libx264 @ 000001ad1de58200] coded y,uvDC,uvAC intra: 14.3% 20.4% 15.4% inter: 0.2% 0.3% 0.0%
[libx264 @ 000001ad1de58200] i16 v,h,dc,p: 84%  8%  2%  6%
[libx264 @ 000001ad1de58200] i4 v,h,dc,ddl,ddr,vr,hd,vl,hu: 25% 24% 22%  4%  6%  5%  6%  3%  6%
[libx264 @ 000001ad1de58200] i8c dc,h,v,p: 78% 11% 11%  1%
[libx264 @ 000001ad1de58200] ref P L0: 76.2% 21.0%  2.7%
[libx264 @ 000001ad1de58200] kb/s:331.17
